P1
91 25
0000000000000000000000000000000000000000000000000000000000000000000000
000000000000000000000
0000000000000000000000000000000000000000000000000000000000000000000000
000000000000000000000
0000000000000000000000000000000000000000000000000000000000000000000000
000000000000000000000
0000000000000000000000000000000000000000000000000000000000000000000000
000000000000000000000
0000000000000000000000000000000000000000000000000000000000000000000000
000000000000000000000
0000000000000000000000000000000000000000000000000000000000000000000000
000000000000000000000
0000000000000000000000000000000000000000000000000000000000000000000000
000000000000000000000
0000000000000000000001110111000000011111000000000110001100000000011100
000000000000000000000
0000000000000000000000100010000000001001100000000011011000000000100010
000000000000000000000
0000000000000000000000100010000000001000100000000011011000000000100010
000000000000000000000
0000000000000000000000100010000000001001100000000010101000000000100000
000000000000000000000
0000000000000000000000100010000000001111000000000010101000000000100000
000000000000000000000
0000000000000000000000100010000000001000000000000010101000000000100010
000000000000000000000
0000000000000000000000110110000000001000000000000010001000000000100010
000000000000000000000
0000000000000000000000011100000000011110000000000111011100000000011100
000000000000000000000
0000000000000000000000000000000000000000000000000000000000000000000000
000000000000000000000
0000000000000000000000000000000000000000000000000000000000000000000000
000000000000000000000
0000000000000000000000000000000000000000000000000000000000000000000000
000000000000000000000
0000000000000000000000000000000000000000000000000000000000000000000000
000000000000000000000
0000000000000000000000000000000000000000000000000000000000000000000000
000000000000000000000
0000000000000000000000000000000000000000000000000000000000000000000000
000000000000000000000
0000000000000000000000000000000000000000000000000000000000000000000000
000000000000000000000
0000000000000000000000000000000000000000000000000000000000000000000000
000000000000000000000
0000000000000000000000000000000000000000000000000000000000000000000000
000000000000000000000
0000000000000000000000000000000000000000000000000000000000000000000000
000000000000000000000
